<mxfile host="app.diagrams.net" modified="2023-09-23T01:59:12.704Z" agent="Mozilla/5.0 (Windows NT 10.0; Win64; x64) AppleWebKit/537.36 (KHTML, like Gecko) Chrome/116.0.0.0 Safari/537.36" etag="zHtqQekoaa8yzhKnQOZl" version="21.8.1" type="device">
  <diagram name="Página-1" id="KY4hO3QTmphDxCNbUUsr">
    <mxGraphModel dx="794" dy="456" grid="1" gridSize="10" guides="1" tooltips="1" connect="1" arrows="1" fold="1" page="1" pageScale="1" pageWidth="827" pageHeight="1169" math="0" shadow="0">
      <root>
        <mxCell id="0" />
        <mxCell id="1" parent="0" />
        <mxCell id="9wrzbCh7Gx1EIBBtDONu-1" value="" style="rounded=0;whiteSpace=wrap;html=1;" vertex="1" parent="1">
          <mxGeometry x="270" y="380" width="330" height="340" as="geometry" />
        </mxCell>
        <mxCell id="9wrzbCh7Gx1EIBBtDONu-3" style="edgeStyle=orthogonalEdgeStyle;rounded=0;orthogonalLoop=1;jettySize=auto;html=1;exitX=1;exitY=0.3333333333333333;exitDx=0;exitDy=0;exitPerimeter=0;entryX=0;entryY=0.5;entryDx=0;entryDy=0;" edge="1" parent="1" source="9wrzbCh7Gx1EIBBtDONu-5" target="9wrzbCh7Gx1EIBBtDONu-20">
          <mxGeometry relative="1" as="geometry">
            <Array as="points">
              <mxPoint x="220" y="490" />
              <mxPoint x="220" y="540" />
            </Array>
          </mxGeometry>
        </mxCell>
        <mxCell id="9wrzbCh7Gx1EIBBtDONu-4" style="edgeStyle=orthogonalEdgeStyle;rounded=0;orthogonalLoop=1;jettySize=auto;html=1;exitX=1;exitY=0.3333333333333333;exitDx=0;exitDy=0;exitPerimeter=0;entryX=0;entryY=0.5;entryDx=0;entryDy=0;" edge="1" parent="1" source="9wrzbCh7Gx1EIBBtDONu-5" target="9wrzbCh7Gx1EIBBtDONu-49">
          <mxGeometry relative="1" as="geometry">
            <Array as="points">
              <mxPoint x="100" y="470" />
              <mxPoint x="200" y="470" />
              <mxPoint x="200" y="440" />
            </Array>
            <mxPoint x="294" y="440" as="targetPoint" />
          </mxGeometry>
        </mxCell>
        <mxCell id="9wrzbCh7Gx1EIBBtDONu-50" style="edgeStyle=orthogonalEdgeStyle;rounded=0;orthogonalLoop=1;jettySize=auto;html=1;exitX=1;exitY=0.3333333333333333;exitDx=0;exitDy=0;exitPerimeter=0;entryX=0;entryY=0.5;entryDx=0;entryDy=0;" edge="1" parent="1" source="9wrzbCh7Gx1EIBBtDONu-5" target="9wrzbCh7Gx1EIBBtDONu-11">
          <mxGeometry relative="1" as="geometry">
            <Array as="points">
              <mxPoint x="100" y="510" />
              <mxPoint x="200" y="510" />
              <mxPoint x="200" y="650" />
            </Array>
          </mxGeometry>
        </mxCell>
        <mxCell id="9wrzbCh7Gx1EIBBtDONu-5" value="Cliente" style="shape=umlActor;verticalLabelPosition=bottom;verticalAlign=top;html=1;outlineConnect=0;rounded=0;" vertex="1" parent="1">
          <mxGeometry x="70" y="470" width="30" height="60" as="geometry" />
        </mxCell>
        <mxCell id="9wrzbCh7Gx1EIBBtDONu-6" value="Servidor del Veraz" style="shape=umlActor;verticalLabelPosition=bottom;verticalAlign=top;html=1;outlineConnect=0;rounded=0;" vertex="1" parent="1">
          <mxGeometry x="700" y="520" width="30" height="60" as="geometry" />
        </mxCell>
        <mxCell id="9wrzbCh7Gx1EIBBtDONu-11" value="Cancelar préstamo" style="ellipse;whiteSpace=wrap;html=1;rounded=0;" vertex="1" parent="1">
          <mxGeometry x="294" y="610" width="120" height="80" as="geometry" />
        </mxCell>
        <mxCell id="9wrzbCh7Gx1EIBBtDONu-12" style="edgeStyle=orthogonalEdgeStyle;rounded=0;orthogonalLoop=1;jettySize=auto;html=1;exitX=1;exitY=0.5;exitDx=0;exitDy=0;entryX=0;entryY=0.3333333333333333;entryDx=0;entryDy=0;entryPerimeter=0;" edge="1" parent="1" source="9wrzbCh7Gx1EIBBtDONu-13" target="9wrzbCh7Gx1EIBBtDONu-6">
          <mxGeometry relative="1" as="geometry" />
        </mxCell>
        <mxCell id="9wrzbCh7Gx1EIBBtDONu-13" value="Verificar deudas" style="ellipse;whiteSpace=wrap;html=1;rounded=0;" vertex="1" parent="1">
          <mxGeometry x="460" y="500" width="120" height="80" as="geometry" />
        </mxCell>
        <mxCell id="9wrzbCh7Gx1EIBBtDONu-19" style="edgeStyle=orthogonalEdgeStyle;rounded=0;orthogonalLoop=1;jettySize=auto;html=1;exitX=1;exitY=0.5;exitDx=0;exitDy=0;entryX=0.5;entryY=0;entryDx=0;entryDy=0;" edge="1" parent="1" source="9wrzbCh7Gx1EIBBtDONu-49" target="9wrzbCh7Gx1EIBBtDONu-13">
          <mxGeometry relative="1" as="geometry" />
        </mxCell>
        <mxCell id="9wrzbCh7Gx1EIBBtDONu-20" value="Adelantar cuotas" style="ellipse;whiteSpace=wrap;html=1;rounded=0;" vertex="1" parent="1">
          <mxGeometry x="294" y="500" width="120" height="80" as="geometry" />
        </mxCell>
        <mxCell id="9wrzbCh7Gx1EIBBtDONu-49" value="Solicitar préstamo" style="ellipse;whiteSpace=wrap;html=1;rounded=0;" vertex="1" parent="1">
          <mxGeometry x="294" y="400" width="120" height="80" as="geometry" />
        </mxCell>
      </root>
    </mxGraphModel>
  </diagram>
</mxfile>
